<?xml version="1.0" standalone="no"?>
<!DOCTYPE svg PUBLIC "-//W3C//DTD SVG 20010904//EN"
 "http://www.w3.org/TR/2001/REC-SVG-20010904/DTD/svg10.dtd">
<svg version="1.0" xmlns="http://www.w3.org/2000/svg"
 width="256.000000pt" height="256.000000pt" viewBox="0 0 256.000000 256.000000"
 preserveAspectRatio="xMidYMid meet">
<metadata>
Created by potrace 1.11, written by Peter Selinger 2001-2013
</metadata>
<g transform="translate(0.000000,256.000000) scale(0.100000,-0.100000)"
fill="#000000" stroke="none">
<path d="M1630 2544 c-97 -29 -166 -136 -141 -221 8 -28 5 -37 -30 -85 -22
-29 -51 -76 -66 -105 -20 -42 -30 -52 -48 -51 -21 2 -22 4 -10 38 16 47 4 81
-54 150 -79 95 -87 100 -164 100 -38 0 -78 5 -90 12 -32 18 -44 18 -90 3 -23
-8 -60 -16 -82 -18 -44 -5 -95 -25 -95 -38 0 -5 -17 -17 -37 -28 -21 -10 -46
-27 -56 -38 -31 -32 -67 -93 -67 -114 0 -11 -5 -29 -11 -41 -14 -26 -14 -100
0 -127 6 -11 23 -32 36 -45 14 -14 25 -32 25 -40 0 -8 11 -23 25 -34 14 -11
25 -23 25 -27 0 -4 -18 -28 -41 -53 -60 -68 -118 -171 -144 -256 -30 -98 -29
-257 3 -326 11 -25 33 -88 47 -140 33 -113 54 -158 101 -209 30 -34 107 -81
156 -95 14 -4 12 -13 -17 -68 -56 -107 -87 -213 -91 -311 -4 -100 8 -143 50
-171 23 -14 33 -15 62 -6 18 6 34 16 34 22 0 23 11 -1 15 -31 2 -17 14 -67 26
-111 l21 -80 324 0 324 0 0 25 c0 20 5 25 24 25 38 0 83 45 107 108 44 115 28
352 -33 474 l-18 37 42 11 c61 15 197 69 239 96 54 34 101 121 115 214 3 19
12 45 20 58 17 27 24 87 13 124 -5 20 0 47 18 95 39 107 44 125 44 178 0 62
-22 135 -56 187 l-26 40 35 34 c20 19 39 46 42 59 3 13 12 26 20 29 36 14 55
116 33 173 -6 15 -13 39 -16 53 -2 13 -8 27 -13 30 -5 3 -15 18 -23 33 -21 41
-172 138 -219 141 -21 2 -40 5 -43 7 -2 3 2 23 10 44 59 166 -88 320 -255 269z
m-81 -329 c2 -10 -3 -23 -11 -29 -7 -6 -31 -35 -52 -63 -55 -77 -75 -70 -35
10 47 93 89 128 98 82z"/>
</g>
</svg>
